<?xml version="1.0" encoding="UTF-8"?>
<svg xmlns="http://www.w3.org/2000/svg" viewBox="0 0 28.22 28.22">
  <path fill="currentColor" d="M25.94,13.98H14.24V2.28c0-.47-.38-.84-.84-.84C6,1.44,.01,7.44,0,14.83c.01,7.39,6,13.39,13.4,13.39,3.69,0,7.04-1.5,9.46-3.92s3.93-5.78,3.93-9.47c0-.47-.38-.85-.85-.85Zm-12.54,12.55c-6.46-.01-11.69-5.24-11.7-11.7C1.7,8.7,6.44,3.61,12.55,3.16V14.83c0,.47,.38,.85,.85,.85h11.67c-.45,6.11-5.54,10.84-11.67,10.85Z" />
  <path fill="currentColor" d="M28.18,10.01C26.67,5.27,22.96,1.55,18.22,.04c-.26-.08-.54-.03-.76,.12-.22,.16-.35,.42-.35,.69V10.27c0,.47,.38,.84,.85,.84h9.41c.27,0,.53-.12,.69-.34h-.01c.16-.22,.21-.5,.13-.76Zm-9.37-.59V2.06c3.32,1.39,5.97,4.03,7.35,7.36h-7.35Z" />
</svg>