<?xml version="1.0" encoding="UTF-8"?>
<svg xmlns="http://www.w3.org/2000/svg" viewBox="0 0 48 48">
  <path fill="currentColor" d="M24,0C10.75,0,0,10.75,0,24H0c0,13.25,10.75,24,24,24s24-10.75,24-24S37.25,0,24,0m0,46.31c-12.31-.01-22.29-9.99-22.31-22.31C1.71,11.69,11.69,1.71,24,1.69c12.31,.01,22.29,9.99,22.31,22.31-.01,12.31-9.99,22.29-22.31,22.31"/>
  <path fill="currentColor" d="M36.46,24.19c-.47,0-.85,.38-.85,.84h0v10.57H12.39V12.39h10.57c.47,0,.85-.38,.85-.84h0c0-.47-.38-.85-.84-.85H11.55c-.47,0-.85,.38-.85,.84h0v24.91c0,.47,.38,.85,.84,.85h24.91c.47,0,.85-.38,.85-.84h0v-11.42c0-.47-.38-.85-.84-.85h0"/>
  <path fill="currentColor" d="M36.78,10.76c-.1-.04-.21-.06-.32-.06h-8.3c-.47,0-.85,.38-.85,.84h0c0,.47,.38,.85,.84,.85h6.26l-11.01,11.01c-.33,.33-.33,.87,0,1.2h0c.16,.16,.37,.25,.6,.25,.23,0,.44-.09,.6-.25l11.01-11.01v6.26c0,.47,.38,.85,.84,.85h0c.47,0,.85-.38,.85-.84h0V11.55c0-.11-.03-.22-.07-.32-.09-.21-.25-.37-.46-.46"/>
</svg>