<?xml version="1.0" encoding="UTF-8"?>
<svg xmlns="http://www.w3.org/2000/svg" viewBox="0 0 22.69 22.71">
  <path fill="currentColor" d="M11.72,16.01c.14,.14,.21,.32,.21,.5s-.07,.36-.2,.5h-.01l-4.33,4.39c-.81,.83-1.9,1.3-3.05,1.31-1.15-.01-2.25-.48-3.05-1.3C.44,20.59-.02,19.45,0,18.27c.03-1.11,.49-2.17,1.29-2.96l5.73-5.73c1.61-1.69,4.27-1.75,5.96-.14,.04,.05,.09,.09,.13,.14,.28,.27,.28,.71,.01,.99h-.01c-.27,.28-.71,.29-.99,.02t-.01-.01c-1.08-1.13-2.88-1.17-4.01-.09l-.09,.09-5.72,5.73c-1.14,1.08-1.18,2.88-.09,4.01l.09,.09c1.08,1.13,2.88,1.17,4.01,.08,.03-.02,.06-.05,.09-.08l4.33-4.39c.28-.28,.72-.28,1-.01Z" />
  <path fill="currentColor" d="M21.39,1.3c1.68,1.61,1.74,4.27,.14,5.96-.05,.04-.09,.09-.14,.13l-5.73,5.73c-.8,.83-1.9,1.29-3.05,1.3-1.15-.01-2.24-.47-3.04-1.3-.28-.27-.28-.71-.01-.99h.01c.27-.28,.72-.28,.99-.01h.01c1.08,1.14,2.88,1.17,4.01,.09l.09-.09,5.73-5.73c1.13-1.08,1.17-2.88,.08-4.01-.03-.03-.05-.06-.08-.09-1.09-1.13-2.89-1.17-4.02-.08-.03,.02-.06,.05-.08,.08l-4.16,4.39c-.27,.29-.72,.3-1,.03-.15-.14-.22-.33-.22-.52,0-.17,.06-.34,.19-.48L15.28,1.31c1.61-1.69,4.28-1.76,5.97-.15,.05,.04,.09,.09,.14,.14Z" />
</svg>