<?xml version="1.0" encoding="UTF-8"?>
<svg xmlns="http://www.w3.org/2000/svg" viewBox="0 0 18.46 31.2">
  <path fill="currentColor" d="M9.18,25.29c-1.63,0-2.95,1.32-2.96,2.95,0,1.63,1.32,2.95,2.96,2.95,1.63,0,2.95-1.32,2.95-2.95,0-1.63-1.32-2.96-2.95-2.96Zm0,4.22c-.7,0-1.26-.56-1.26-1.26,0-.7,.57-1.26,1.26-1.26,.7,0,1.26,.57,1.26,1.26,0,.7-.56,1.26-1.26,1.26Z" />
  <path fill="currentColor" d="M9.18,0C4.64-.01,.76,3.28,.03,7.76c-.02,.15-.03,.31-.03,.46,0,.45,.34,.82,.79,.85l4.25,.3c.41,0,.76-.3,.83-.7,.29-1.61,1.69-2.77,3.32-2.77,1.86,0,3.37,1.51,3.37,3.37-.05,1.84-1.53,3.32-3.37,3.37h-2.12c-.22,0-.44,.09-.6,.25-.16,.16-.25,.38-.25,.6v8.43c0,.47,.39,.85,.86,.85h4.22c.47,0,.85-.38,.84-.85v-3.86c3.78-1.27,6.32-4.8,6.33-8.78C18.46,4.16,14.31,0,9.18,0Zm1.9,16.61c-.37,.1-.63,.43-.64,.82v3.64h-2.52v-6.74h1.26c2.77-.07,4.99-2.3,5.06-5.06,0-2.8-2.27-5.06-5.06-5.06-2.16,0-4.09,1.37-4.79,3.42l-2.58-.19c.83-3.39,3.88-5.77,7.37-5.75,4.19,0,7.58,3.4,7.59,7.59,0,3.46-2.34,6.48-5.69,7.34Z" />
</svg>