<?xml version="1.0" standalone="no"?>
<!DOCTYPE svg PUBLIC "-//W3C//DTD SVG 20010904//EN"
 "http://www.w3.org/TR/2001/REC-SVG-20010904/DTD/svg10.dtd">
<svg version="1.0" xmlns="http://www.w3.org/2000/svg"
 width="180.000000pt" height="180.000000pt" viewBox="0 0 180.000000 180.000000"
 preserveAspectRatio="xMidYMid meet">
<metadata>
Created by potrace 1.14, written by Peter Selinger 2001-2017
</metadata>
<g transform="translate(0.000000,180.000000) scale(0.100000,-0.100000)"
fill="#000000" stroke="none">
<path d="M490 896 l0 -416 178 0 c235 1 301 17 396 102 155 136 166 477 21
623 -21 20 -68 52 -104 69 l-66 31 -212 3 -213 4 0 -416z m374 205 c59 -33 85
-95 86 -202 0 -148 -66 -229 -188 -229 l-47 0 2 223 c1 122 2 225 3 228 0 12
116 -4 144 -20z"/>
<path d="M1303 745 c-84 -36 -102 -164 -32 -230 59 -58 175 -38 211 35 62 124
-53 250 -179 195z"/>
</g>
</svg>
